<svg width="1920" height="944" viewBox="0 0 1920 944" fill="none" xmlns="http://www.w3.org/2000/svg">
<path opacity="0.05" d="M315.769 914.671C506.125 1272.68 950.663 1408.59 1308.67 1218.23C1666.68 1027.88 1802.59 583.338 1612.23 225.329C1421.88 -132.679 977.338 -268.588 619.329 -78.2314C261.321 112.125 125.412 556.662 315.769 914.671Z" stroke="white" stroke-opacity="0.24" stroke-width="5" stroke-linecap="round" stroke-dasharray="44 17"/>
<path opacity="0.1" d="M1365.96 1144.06C1683 922.062 1760.06 485.084 1538.06 168.04C1316.06 -149.004 879.084 -226.055 562.04 -4.05874C244.996 217.938 167.945 654.916 389.941 971.96C611.938 1289 1048.92 1366.06 1365.96 1144.06Z" stroke="white" stroke-opacity="0.24" stroke-width="5" stroke-linecap="round" stroke-dasharray="41 51"/>
<path opacity="0.14" d="M397.992 216.319C202.659 528.917 297.721 940.676 610.319 1136.01C922.917 1331.34 1334.68 1236.28 1530.01 923.681C1725.34 611.083 1630.28 199.324 1317.68 3.99149C1005.08 -191.341 593.324 -96.2792 397.992 216.319Z" stroke="white" stroke-opacity="0.24" stroke-width="5" stroke-linecap="round" stroke-dasharray="37 39"/>
<path opacity="0.19" d="M384.763 827.893C527.193 1147.8 901.989 1291.67 1221.89 1149.24C1541.8 1006.81 1685.67 632.011 1543.24 312.107C1400.81 -7.79664 1026.01 -151.667 706.107 -9.23695C386.203 133.193 242.333 507.989 384.763 827.893Z" stroke="white" stroke-opacity="0.24" stroke-width="5" stroke-linecap="round" stroke-dasharray="22 15"/>
<path opacity="0.23" d="M466.012 905.897C651.523 1180.93 1024.87 1253.5 1299.9 1067.99C1574.93 882.477 1647.5 509.134 1461.99 234.103C1276.48 -40.9288 903.134 -113.499 628.103 72.0116C353.071 257.523 280.501 630.866 466.012 905.897Z" stroke="white" stroke-opacity="0.24" stroke-width="5" stroke-linecap="round" stroke-dasharray="43 26"/>
<path opacity="0.28" d="M1013.44 1135.15C1325.57 1107.85 1556.46 832.681 1529.15 520.556C1501.85 208.43 1226.68 -22.4599 914.556 4.84749C602.43 32.1549 371.54 307.319 398.848 619.444C426.155 931.569 701.319 1162.46 1013.44 1135.15Z" stroke="white" stroke-opacity="0.24" stroke-width="5" stroke-linecap="round" stroke-dasharray="13 11"/>
<path opacity="0.32" d="M543.249 898.726C724.8 1131.1 1060.35 1172.3 1292.73 990.75C1525.1 809.2 1566.3 473.648 1384.75 241.274C1203.2 8.89963 867.648 -32.301 635.274 149.25C402.9 330.8 361.699 666.352 543.249 898.726Z" stroke="white" stroke-opacity="0.24" stroke-width="5" stroke-linecap="round" stroke-dasharray="39 39"/>
<path opacity="0.37" d="M728.997 128.024C484.901 257.812 392.236 560.906 522.024 805.003C651.812 1049.1 954.906 1141.76 1199 1011.98C1443.1 882.187 1535.76 579.094 1405.98 334.997C1276.19 90.9006 973.094 -1.76444 728.997 128.024Z" stroke="white" stroke-opacity="0.24" stroke-width="5" stroke-linecap="round" stroke-dasharray="17 15"/>
<path opacity="0.41" d="M563.534 810.624C696.427 1031.8 983.453 1103.36 1204.62 970.466C1425.8 837.573 1497.36 550.547 1364.47 329.375C1231.57 108.204 944.547 36.6403 723.376 169.534C502.204 302.427 430.64 589.453 563.534 810.624Z" stroke="white" stroke-opacity="0.24" stroke-width="5" stroke-linecap="round" stroke-dasharray="45 35"/>
<path opacity="0.46" d="M1265.36 882.068C1437.71 715.631 1442.51 440.99 1276.07 268.639C1109.63 96.2882 834.99 91.4944 662.639 257.931C490.288 424.369 485.494 699.01 651.932 871.361C818.369 1043.71 1093.01 1048.51 1265.36 882.068Z" stroke="white" stroke-opacity="0.24" stroke-width="5" stroke-linecap="round" stroke-dasharray="44 31"/>
<path opacity="0.5" d="M1358.37 639.538C1396.78 421.733 1251.34 214.034 1033.54 175.629C815.733 137.224 608.034 282.657 569.629 500.462C531.224 718.267 676.657 925.966 894.462 964.371C1112.27 1002.78 1319.97 857.343 1358.37 639.538Z" stroke="white" stroke-opacity="0.24" stroke-width="5" stroke-linecap="round" stroke-dasharray="15 29"/>
<path opacity="0.55" d="M1330.19 544.394C1316.05 342.153 1140.63 189.668 938.394 203.81C736.153 217.952 583.668 393.366 597.81 595.606C611.953 797.847 787.366 950.332 989.607 936.19C1191.85 922.047 1344.33 746.634 1330.19 544.394Z" stroke="white" stroke-opacity="0.24" stroke-width="5" stroke-linecap="round" stroke-dasharray="39 32"/>
<path opacity="0.59" d="M1050.37 892.342C1228.4 844.64 1334.04 661.653 1286.34 483.629C1238.64 305.605 1055.65 199.957 877.629 247.659C699.605 295.36 593.957 478.347 641.659 656.371C689.36 834.396 872.347 940.043 1050.37 892.342Z" stroke="white" stroke-opacity="0.24" stroke-width="5" stroke-linecap="round" stroke-dasharray="31 51"/>
<path opacity="0.64" d="M683.607 677.633C743.051 832.489 916.776 909.837 1071.63 850.393C1226.49 790.949 1303.84 617.224 1244.39 462.367C1184.95 307.511 1011.22 230.163 856.367 289.607C701.511 349.051 624.163 522.776 683.607 677.633Z" stroke="white" stroke-opacity="0.24" stroke-width="5" stroke-linecap="round" stroke-dasharray="52 46"/>
<path opacity="0.68" d="M1168.51 741.605C1263.29 628.657 1248.55 460.264 1135.61 365.489C1022.66 270.714 854.264 285.447 759.489 398.395C664.714 511.343 679.447 679.736 792.395 774.511C905.343 869.286 1073.74 854.553 1168.51 741.605Z" stroke="white" stroke-opacity="0.24" stroke-width="5" stroke-linecap="round" stroke-dasharray="48 43"/>
<path opacity="0.73" d="M787.701 416.745C703.061 514.113 713.378 661.659 810.746 746.299C908.113 830.939 1055.66 820.622 1140.3 723.255C1224.94 625.887 1214.62 478.341 1117.25 393.701C1019.89 309.061 872.341 319.378 787.701 416.745Z" stroke="white" stroke-opacity="0.24" stroke-width="5" stroke-linecap="round" stroke-dasharray="39 31"/>
<path opacity="0.77" d="M784.037 482.226C735.56 581.617 776.835 701.487 876.226 749.963C975.617 798.439 1095.49 757.165 1143.96 657.774C1192.44 558.383 1151.16 438.513 1051.77 390.037C952.383 341.56 832.513 382.835 784.037 482.226Z" stroke="white" stroke-opacity="0.24" stroke-width="5" stroke-linecap="round" stroke-dasharray="18 11"/>
<path opacity="0.82" d="M888.249 421.33C806.141 463.166 773.494 563.643 815.33 645.751C857.166 727.859 957.643 760.506 1039.75 718.67C1121.86 676.834 1154.51 576.357 1112.67 494.249C1070.83 412.141 970.357 379.494 888.249 421.33Z" stroke="white" stroke-opacity="0.24" stroke-width="5" stroke-linecap="round" stroke-dasharray="28 21"/>
<path opacity="0.86" d="M1026.67 452.14C961.575 417.529 880.75 442.24 846.14 507.333C811.53 572.425 836.24 653.25 901.333 687.86C966.425 722.47 1047.25 697.76 1081.86 632.667C1116.47 567.575 1091.76 486.75 1026.67 452.14Z" stroke="white" stroke-opacity="0.24" stroke-width="5" stroke-linecap="round" stroke-dasharray="42 45"/>
<path opacity="0.91" d="M877.299 519.943C849.653 567.827 866.059 629.055 913.943 656.701C961.827 684.347 1023.06 667.941 1050.7 620.057C1078.35 572.173 1061.94 510.945 1014.06 483.299C966.173 455.653 904.945 472.059 877.299 519.943Z" stroke="white" stroke-opacity="0.24" stroke-width="5" stroke-linecap="round" stroke-dasharray="40 50"/>
<path opacity="0.95" d="M946.726 634.468C982.331 644.009 1018.93 622.879 1028.47 587.274C1038.01 551.669 1016.88 515.072 981.274 505.532C945.669 495.991 909.072 517.121 899.532 552.726C889.991 588.331 911.121 624.928 946.726 634.468Z" stroke="white" stroke-opacity="0.24" stroke-width="5" stroke-linecap="round" stroke-dasharray="10 13"/>
<path d="M943.455 596.297C957.978 607.644 978.95 605.069 990.297 590.545C1001.64 576.022 999.069 555.05 984.545 543.703C970.022 532.356 949.05 534.931 937.703 549.455C926.356 563.978 928.931 584.95 943.455 596.297Z" stroke="white" stroke-opacity="0.24" stroke-width="5" stroke-linecap="round" stroke-dasharray="33 33"/>
</svg>
