<svg width="30" height="41" viewBox="0 0 30 41" fill="none" xmlns="http://www.w3.org/2000/svg">
<path fill-rule="evenodd" clip-rule="evenodd" d="M4.29324 4.29323C7.04209 1.5444 10.7703 0 14.6578 0C18.5453 0 22.2735 1.54439 25.0225 4.29322L25.0225 4.29326C27.7713 7.04212 29.3156 10.7703 29.3156 14.6578V26.0057C29.3156 29.8932 27.7713 33.6217 25.0225 36.3705C22.2735 39.1195 18.5451 40.6633 14.6578 40.6633C10.7704 40.6633 7.04217 39.1195 4.29322 36.3704C1.54436 33.6217 0 29.8932 0 26.0057V14.6578C0 10.7703 1.5444 7.04209 4.29323 4.29324L4.29324 4.29323ZM6.29929 6.29929C6.29929 6.29929 6.29929 6.29929 6.29929 6.29929C8.51615 4.08245 11.5228 2.83699 14.6578 2.83699C17.7928 2.83699 20.7995 4.08246 23.0165 6.29931C25.2332 8.51616 26.4786 11.5227 26.4786 14.6578V26.0057C26.4786 29.1408 25.2331 32.1477 23.0164 34.3644C20.7996 36.5812 17.7929 37.8263 14.6578 37.8263C11.5226 37.8263 8.51607 36.5812 6.29931 34.3644L6.29927 34.3644C4.08248 32.1477 2.83699 29.1408 2.83699 26.0057V14.6578C2.83699 11.5227 4.08245 8.51616 6.29929 6.29929Z" fill="white"/>
<path fill-rule="evenodd" clip-rule="evenodd" d="M14.6578 7.56531C15.4412 7.56531 16.0762 8.20039 16.0762 8.9838V24.1144C16.0762 24.8978 15.4412 25.5329 14.6578 25.5329C13.8743 25.5329 13.2393 24.8978 13.2393 24.1144V8.9838C13.2393 8.20039 13.8743 7.56531 14.6578 7.56531Z" fill="white"/>
<path fill-rule="evenodd" clip-rule="evenodd" d="M7.98078 17.4374C8.53473 16.8835 9.43287 16.8835 9.98683 17.4374L14.6578 22.1084L19.3287 17.4374C19.8827 16.8835 20.7808 16.8835 21.3348 17.4374C21.8887 17.9914 21.8887 18.8895 21.3348 19.4435L15.6608 25.1175C15.1069 25.6714 14.2087 25.6714 13.6548 25.1175L7.98078 19.4435C7.42682 18.8895 7.42682 17.9914 7.98078 17.4374Z" fill="white"/>
</svg>
