<svg width="57" height="48" viewBox="0 0 57 48" fill="none" xmlns="http://www.w3.org/2000/svg">
<path d="M56.5659 47.9999L28.337 0L0.415039 47.9999H56.5659Z" fill="#68288F" fill-opacity="0.3"/>
<path d="M44.4904 47.9999L22.3323 10.2642L0.415039 47.9999H44.4904Z" fill="#68288F" fill-opacity="0.3"/>
<path d="M56.5661 47.9999L34.408 10.2642L12.4907 47.9999H56.5661Z" fill="#68288F" fill-opacity="0.3"/>
<path d="M44.4904 47.9999L22.3323 10.2642L0.415039 47.9999H44.4904Z" fill="#68288F" fill-opacity="0.3"/>
<path d="M56.2642 47.9998L40.3286 20.8301L24.5662 47.9998H56.2642Z" fill="#68288F" fill-opacity="0.3"/>
<path d="M44.1888 47.9998L28.2531 20.8301L12.4907 47.9998H44.1888Z" fill="#68288F" fill-opacity="0.3"/>
<path d="M32.1131 47.9998L16.1775 20.8301L0.415039 47.9998H32.1131Z" fill="#68288F" fill-opacity="0.3"/>
<path d="M43.8865 47.9996L34.3251 31.6978L24.8677 47.9996H43.8865Z" fill="#68288F" fill-opacity="0.3"/>
<path d="M56.2642 47.9996L46.7028 31.6978L37.2454 47.9996H56.2642Z" fill="#68288F" fill-opacity="0.3"/>
<path d="M31.8113 47.9996L22.2499 31.6978L12.7925 47.9996H31.8113Z" fill="#68288F" fill-opacity="0.3"/>
<path d="M19.7356 47.9996L10.1743 31.6978L0.716797 47.9996H19.7356Z" fill="#68288F" fill-opacity="0.3"/>
<path d="M7.3583 47.9995L4.0194 42.2637L0.716797 47.9995H7.3583Z" fill="#68288F" fill-opacity="0.3"/>
<path d="M19.434 47.9995L16.0951 42.2637L12.7925 47.9995H19.434Z" fill="#68288F" fill-opacity="0.3"/>
<path d="M31.8109 47.9995L28.472 42.2637L25.1694 47.9995H31.8109Z" fill="#68288F" fill-opacity="0.3"/>
<path d="M43.8869 47.9995L40.548 42.2637L37.2454 47.9995H43.8869Z" fill="#68288F" fill-opacity="0.3"/>
</svg>
